<?xml version="1.0" encoding="utf-8"?>
<!-- Generator: Adobe Illustrator 28.1.0, SVG Export Plug-In . SVG Version: 6.00 Build 0)  -->
<svg version="1.1" id="Layer_1" xmlns="http://www.w3.org/2000/svg" xmlns:xlink="http://www.w3.org/1999/xlink" x="0px" y="0px"
	 viewBox="0 0 750 750" style="enable-background:new 0 0 750 750;" xml:space="preserve">
<style type="text/css">
	.st0{fill:#FEFEFE;}
	.st1{fill:#003A65;}
	.st2{fill:#FFFFFF;}
	.st3{fill:#DA1A35;}
</style>
<g>
	<path class="st0" d="M54.6,0c0,0,0,202.7,0,301.1C54.7,585.5,375,750,375,750s320.3-163.3,320.3-448.9c0-98.3,0-301.1,0-301.1H54.6
		z"/>
	<path class="st1" d="M71.9,301c0,0.8,0,1.6,0,2.4C71.9,572.6,375,728.2,375,728.2s303.1-154.5,303.1-424.8c0-0.8,0-1.6,0-2.4
		L71.9,301L71.9,301z"/>
	<g>
		<path class="st2" d="M549.5,508.3c0-17.2-2.6-34.2-7.5-50.6c-47.4,31.1-94.6,39.4-122.5,22.4c1.5-2,2.5-4.5,2.5-7.1
			c0-6.4-5.2-11.6-11.6-11.6c-2.7,0-5.2,0.9-7.1,2.5c-17-27.9-8.7-75.1,22.4-122.5c-16.4-4.9-33.4-7.5-50.6-7.5l0,0
			c-17.2,0-34.2,2.6-50.6,7.5c31.1,47.4,39.4,94.6,22.4,122.5c-2-1.5-4.4-2.5-7.1-2.5c-6.4,0-11.6,5.2-11.6,11.6
			c0,2.7,0.9,5.2,2.5,7.1c-27.9,17-75.1,8.7-122.5-22.4c-4.9,16.4-7.5,33.4-7.5,50.6l0,0c0,17.2,2.6,34.2,7.5,50.6
			c47.4-31.1,94.6-39.4,122.5-22.4c-1.5,2-2.5,4.5-2.5,7.1c0,6.4,5.2,11.6,11.6,11.6c2.7,0,5.2-0.9,7.1-2.5
			c17,27.9,8.7,75.1-22.4,122.5c16.4,4.9,33.4,7.5,50.6,7.5l0,0c17.2,0,34.2-2.6,50.6-7.5c-31.1-47.4-39.4-94.6-22.4-122.5
			c2,1.5,4.4,2.5,7.1,2.5c6.4,0,11.6-5.2,11.6-11.6c0-2.7-0.9-5.2-2.5-7.1c27.9-17,75.1-8.7,122.5,22.4
			C546.9,542.5,549.5,525.5,549.5,508.3L549.5,508.3"/>
		<path class="st1" d="M406.6,508.3c0,17.4-14.1,31.6-31.6,31.6c-17.4,0-31.6-14.1-31.6-31.6c0-17.4,14.1-31.6,31.6-31.6
			C392.4,476.7,406.6,490.9,406.6,508.3"/>
	</g>
	<path class="st3" d="M423.8,219.7c3,2.1,1.6,4.4,0.1,5.8c-1.4,1.3-16.8,11.4-26.7,8.3c-7.6-2.4-7.6-16-18-20.4
		c-8.4-3.5-17.9,2.9-17.9,2.9c14.9-0.7,19.3,20.6,19.3,20.6c-22.7-17.8-43.7-5.7-45.2,5.8c20.1-12.1,35.5,4.5,35.5,4.5
		c-7.1,1-22.6,12.4-11,30.6c2.2-21.4,23.3-25,23.3-25c-1.8,10,7.2,29.7,23.7,25.6c-12-7.9-10.2-16.1-10.2-21.2
		c0-3.2,3.2-5.1,7.5-5.5c23.5-2.5,23.5,15.3,23.5,15.3c6.4-0.6,23.8-23.7,23-35.8c6.6,9.8,23.9,15.3,36.4,6.6
		c-16.1-2.6-22.8-18.5-23.7-21.5c-0.9-3-4.9-22.4-12.3-29.8c-10.5-10.5-27.1-2.4-36,5.9c-2.7,2.6-10.9,17.1-1.1,21.5
		C420.9,216.9,422.2,218.6,423.8,219.7"/>
	<path class="st3" d="M169.7,172.7c-24.5,0-51.9-49.1-54-53.3c13.8-1,13.2-7.8,11.8-12.3c-5.1-16.5-36.1-1-39,1.8
		c1.1-16,18.2-22.4,28.9-20.5l0,0C115.6,64,93,62.7,93,62.7c19.1-14.2,31.7,3.9,35.7,17.8c19.4-14.4,1-34-2.5-35.8
		c0,0,15.5-1.4,21.7,14.4c5.8,14.7-1.7,23.9-1.7,23.9s5-0.1,8.2-2.4C165.2,73,164.7,63,164.2,61c0,0,8.1,5.1,7.1,14.5
		c-0.7,6.3-7,11.6-9.7,15.1s-9.2,10.9-1,34.6c4,11.6,10.1,20.4,14.2,22.3C172.2,152.5,167.7,158.2,169.7,172.7"/>
	<path class="st3" d="M116.2,208.4c-15.2,1.1-42.2,7.3-28.4,35.3c0.6-19,26.1-20.9,30.6-19.6c-12.3,20.7,2.1,40.8,13.3,39.6
		c-11.5-9.2-1.2-22.2,0.1-26.9c0.9-3.3,5.2-5.3,9.3-4.2c14,4,3.8,15.9,3.8,15.9c30.8,13.8,44.7,1.7,50.5-4.9c0,0,9.4,9.2,0.1,15.9
		c5,3.1,34.1,4.2,45-9.4c3.6,11,38,10.9,43.9,6.2c0,0-6.7-3.8-6.7-9.1c0-8.6,9.5-15.2,21.3-20.4c13.7-6,36.2-8.7,58.9-19.5
		c41.9-19.9,93.4-56.6,110-33.6c8.5,11.7,6.4,23.2,14.8,31.2c8.4,8.1,22.1,4.4,30.4,3.5c20.5-2.4,49.4-5.5,67.4-6.7
		c17.9-1.2,22.6,12.1,23,13.2c1.4,3.9-0.3,6.4-2.8,6.2c-6-0.4-16.8-3.1-23.1,0.4c-9,5.1-6.5,17.5-6.5,17.5
		c7.6-12.8,28.3-11,35.5-9.7c-7,6-20,29.5-1.4,39.6c-4.8-17.8,11.9-30.3,11.9-30.3c1.5,5,12.5,15.2,36.7,13.8
		c-25.5-8-21.4-21.1-21.4-21.1c8.3,3.6,26.1,1.2,34.6-17.5c-28.8,17.7-36.8,0.9-38-1.1c-5.1-9.1,8.7-10.9,8.7-10.9
		c-3.1-6.2-42.7-30.6-23-38.3c-6.9-4-23.2-2.3-37.9,8.4c0.6-3.2,0.1-12.8-4.3-16.8c0,0-23.8,16.5-42.5,13.3
		c-18.8-3.2-11.2-31.2-11.2-31.2s48.2,5.9,66.2-2.4c18-8.3,17.8-21.1,32.9-28.9c12.1-6.3,26.5-1.1,26.5-1.1
		c-2.2-12.4-25.7-22.1-43.8-3.1c0,0-1.3-35.1-44.3-31c-26.7,2.6-46.8,13.6-74.3,18.6c-26.8,4.9-52.1,9.6-69.1,9.6
		s-41.4-4.6-43.2-23.2c-1.1-11,7.6-15.8,15.7-15.8c12.9,0,30.9,7.6,45.4,12.6c10.4,3.6,20.6,3.7,26.2,3.7c15.2,0,34.4-7.6,43.9-11.4
		c9.6-3.8,17.2-6.1,35.5-4.5c-5.7-7.5-46.7-25.4-74.5-23.8C435.4,38,433.8,50.2,408,49.1s-48.8,3.2-49.5,22.7
		c-0.7,19.6,16.5,40.3,58.9,37.2c17.5-1.1,81.8-11.9,94.6-15.9c17.1-5.4,81.4-18,69.2,14.1c-2.6,6.8-10.4,14.1-29.4,14.1
		s-42.7-5.5-49-6.5c-6.3-1.1-23.3-3.1-40-0.7c-15.5,2.2-121.9,17.4-141,20.1c0,6.3-4,27,14.4,38.3c-8.1,3.8-24,12.2-39,5.4
		c-1.2,5,4.9,14.4,12.1,22.2c-6,2-28.8,12.7-40.7,5c-4.8,8.6-19.1,30-53.4,23c2.2-1.6,0.9-12-6.8-15.5c-8.5,1.1-9.5,5.9-43.1,2
		c-10.2-1.2-18.5-4.5-21.4-11c-3.1-6.9,1.2-16.6-0.9-22.1c-4.5-11.4-21.5-9.9-21.5-9.9c14.8,11.4,4.9,27.5,4.9,27.5
		c-14.1-14.1-35.9-27.8-43.4-2.9c22-8.1,33.3,12.7,33.3,12.7"/>
	<path class="st3" d="M333.6,83.4c-8.4-16.4-27.2-4.5-27.2-4.5c5-5.8,0.4-24.4-5.8-28.4c-0.2,9.4-8.1,12.3-14.1,10.7
		c-7.5-2-4.6-12.6-2.4-17.1c-5.8-0.4-18-1.2-26.3,10.8c-2.2-15-15.7-21.2-29.8-17.6c15,17.2-17.6,35.9-28.9,30.5
		c-5.4,11.1,12.7,23.7,15.1,20.2c-9.6,13.8-25,10.7-33.6,7.8c-0.3,6.1,6.3,18.9,19,18.9c-6.6,10.1-20.6,10.8-24.8,8.7
		c-1.9,9.7,13.8,18.3,18.1,19c-12.9,20.5-8.5,45.5-1.3,55.4l4.8,8.5c10.5-21.1,34.6-12.7,30.6,7.4c22.7,2.4,34-17.3,38.9-29.3
		c7.8,8.7,17.6,9.7,23,8.4c-7.4-13.8-4.1-28.1-0.8-33.1c7.7,7.5,19.1,9,24.6,7.2c-7.3-10.1-7.5-35.2-5.4-44c5.1,3.4,16.3,7,21.7-5.6
		C319,115.5,316.8,82.9,333.6,83.4z M230.9,86.4c1.4-1.5,4.3-4,5.4-2.5c2.2,3.3,2.9,6.1,7.5,10.3c3.1,2.8,8.2,4.7,10.3,5.3
		c1.2,5-8.3,12.1-19.3,2C229.2,96.3,227.5,90.1,230.9,86.4z M255.6,154.5c-11.7,16.3-23.5,9-23.5,9s-13.3-5.2-6.9-24.3
		c-8.6-6-5.5-13.9-2.8-15.4c1.2,2.6,2.1,7.5,9.5,11.2c7.4,3.7,10.3,1.7,11.1,0c1.5-3-2.2-5.8-4.8-8.7c-2.6-2.8-3.2-7.3-1.4-9.4
		c2.2-2.7,6.5-2.6,8.4-1.2c-9.1,1.6,2.9,9.1,5.7,10.5s16,6.7,11.9-1.6c2.2,0.7,4.7,3.8,3.8,7.3c-0.7,2.7-4.6,4.9-8.4,4.5
		c-3.9-0.4-8.3-1.7-9.9,1.3c-0.8,1.7-0.2,5.7,7.2,9.5c7.4,3.7,10.3,1.3,14.1,0.6C270,150.8,265.6,157.8,255.6,154.5z M293.4,117.5
		c-0.9,4.8-6.8,7.1-14.1,5.6c-14.3-2.7-14.3-14-9.7-15.9c1.8,1.3,6.2,4.2,10.2,5c6,1.2,8.6,0.1,12.5-0.1
		C294,112.2,293.8,115.6,293.4,117.5z"/>
</g>
</svg>
