<?xml version="1.0" encoding="utf-8"?>
<!-- Generator: Adobe Illustrator 25.4.1, SVG Export Plug-In . SVG Version: 6.00 Build 0)  -->
<svg version="1.1" id="Layer_1" xmlns="http://www.w3.org/2000/svg" xmlns:xlink="http://www.w3.org/1999/xlink" x="0px" y="0px"
	 viewBox="32 32 309 78" style="enable-background:new 32 32 309 78;" xml:space="preserve">
<style type="text/css">
	.yYdCdriBWUSVodNJl981kg-st0{fill-rule:evenodd;clip-rule:evenodd;fill:#FABD0F;}
	.yYdCdriBWUSVodNJl981kg-st1{fill:#FFFFFF;}
	.yYdCdriBWUSVodNJl981kg-st2{fill:#B90E31;}
	.yYdCdriBWUSVodNJl981kg-st3{fill:#FABD0F;}
	.yYdCdriBWUSVodNJl981kg-st4{fill:#002452;}
	.yYdCdriBWUSVodNJl981kg-st5{fill:none;}
	.yYdCdriBWUSVodNJl981kg-st6{fill:#779221;}
	.yYdCdriBWUSVodNJl981kg-st7{fill:#614F87;}
	.yYdCdriBWUSVodNJl981kg-st8{fill:#876140;}
</style>
<symbol  id="Crown" viewBox="-3.641 -2.668 7.281 5.335">
	<path d="M-2.417-2.049C-2.409-2.299-2.277-2.668,0-2.668s2.409,0.369,2.417,0.619c0.307,1.364,0.866,3.044,1.158,3.476
		c0.085,0.126,0.089,0.29,0.009,0.42c-0.08,0.129-0.229,0.2-0.379,0.18C2.826,1.978,2.438,1.763,2.27,1.391
		C2.223,1.384,2.177,1.373,2.132,1.357C1.866,1.262,1.677,1.018,1.651,0.735C1.636,0.58,1.721,0.433,1.854,0.359
		C1.848,0.302,1.822,0.198,1.753,0.063c-0.076-0.148-0.362-0.271-0.65-0.208c-0.28,0.061-0.407,0.192-0.439,0.453
		C0.651,0.407,0.659,0.489,0.671,0.543C0.683,0.538,0.696,0.531,0.71,0.522c0.11-0.064,0.244-0.07,0.359-0.016
		C1.185,0.56,1.266,0.667,1.287,0.792c0.062,0.373-0.096,0.749-0.393,0.936C0.813,1.779,0.726,1.812,0.636,1.83
		c-0.046,0.331-0.231,0.599-0.37,0.732c-0.149,0.142-0.383,0.142-0.532,0c-0.139-0.132-0.324-0.4-0.37-0.732
		c-0.09-0.017-0.176-0.051-0.257-0.102c-0.297-0.186-0.455-0.562-0.393-0.936c0.021-0.125,0.102-0.232,0.217-0.286
		C-0.955,0.452-0.82,0.458-0.71,0.522c0.015,0.009,0.028,0.016,0.039,0.021c0.012-0.054,0.02-0.136,0.008-0.235
		c-0.032-0.262-0.159-0.393-0.439-0.454c-0.289-0.062-0.574,0.06-0.65,0.207C-1.821,0.197-1.848,0.3-1.854,0.358
		c0.136,0.072,0.218,0.22,0.203,0.377c-0.026,0.284-0.215,0.528-0.481,0.622C-2.177,1.373-2.223,1.384-2.27,1.391
		c-0.168,0.373-0.556,0.587-0.934,0.637c-0.152,0.02-0.299-0.051-0.379-0.18c-0.08-0.129-0.077-0.294,0.009-0.42
		C-3.282,0.995-2.723-0.685-2.417-2.049z"/>
	<path class="yYdCdriBWUSVodNJl981kg-st0" d="M0-2.281c1.122,0,2.03,0.123,2.03,0.277c0.301,1.353,0.88,3.14,1.224,3.648
		C2.974,1.607,2.538,1.421,2.572,0.92C2.38,1.117,2.061,0.969,2.036,0.699c0.323-0.109,0.205-0.53,0.062-0.812
		c-0.161-0.315-0.624-0.508-1.076-0.41C0.507-0.412,0.322-0.089,0.279,0.262C0.231,0.658,0.374,1.166,0.905,0.856
		c0.064,0.385-0.272,0.809-0.728,0.487C0.441,1.863,0,2.281,0,2.281s-0.441-0.418-0.178-0.938c-0.456,0.322-0.792-0.102-0.728-0.487
		c0.531,0.31,0.674-0.198,0.626-0.594c-0.043-0.351-0.228-0.674-0.741-0.785c-0.453-0.098-0.915,0.095-1.076,0.41
		C-2.241,0.169-2.358,0.59-2.036,0.699C-2.061,0.969-2.38,1.117-2.572,0.92c0.034,0.501-0.403,0.687-0.682,0.724
		C-2.91,1.135-2.331-0.651-2.03-2.004C-2.03-2.157-1.122-2.281,0-2.281"/>
</symbol>
<g>
	<path class="yYdCdriBWUSVodNJl981kg-st1" d="M194.279,77.752c0,1.916,0.07,3.334,0.353,4.125c0.284,0.633,1.059,0.919,2.263,0.985l2.91,0.219v2.117
		c-1.774-0.067-3.831-0.207-5.806-0.207c-2.059,0-4.108,0.14-5.953,0.207c0.144-1.983,0.286-3.894,0.286-6.516l-4.746,4.399
		c-1.983,1.777-4.531,2.762-7.93,2.762c-9.984,0-9.984-6.382-9.984-12.131V61.799c0-2.269-0.14-3.827-0.497-4.393
		c-0.423-0.566-1.133-0.779-2.619-0.779h-1.734v-1.983c4.178-0.426,7.538-1.776,10.16-2.914l0.639,0.292v20.91
		c0,5.603,1.206,8.585,7.717,8.585c4.606,0,8.994-4.746,8.994-8.147V61.799c0-2.269-0.142-3.827-0.494-4.393
		c-0.429-0.566-1.136-0.779-2.625-0.779h-2.615v-1.983c4.175-0.426,8.423-1.776,11.045-2.914l0.636,0.292V77.752z"/>
	<path class="yYdCdriBWUSVodNJl981kg-st1" d="M216.54,54.056c5.1,0,7.5,5.391,7.5,11.991c-5.097,0.28-11.047,0.42-16.846-0.219
		C206.836,58.096,211.087,54.056,216.54,54.056 M216.888,51.714c-2.408,0-4.458,0.785-6.936,1.922
		c-1.557,0.706-3.045,1.771-4.39,2.829c-3.259,2.556-5.1,6.668-5.1,13.543c0,9.576,5.667,16.384,16.357,16.384
		c4.82,0,10.831-3.121,11.33-3.967l1.411-2.415l-0.919-0.706c-2.692,1.624-5.38,3.328-8.776,3.328
		c-8.712,0-12.817-5.664-12.817-13.962h10.336c4.254,0,8.564-0.286,12.819-0.991c0.135-0.998,0.135-1.99,0.135-2.981
		C230.34,56.684,224.61,51.714,216.888,51.714"/>
	<path class="yYdCdriBWUSVodNJl981kg-st1" d="M249.974,54.042c5.092,0,7.501,5.39,7.501,11.991c-5.098,0.28-11.051,0.42-16.858-0.219
		C240.263,58.081,244.51,54.042,249.974,54.042 M250.32,51.699c-2.409,0-4.456,0.785-6.945,1.922
		c-1.554,0.706-3.042,1.771-4.386,2.829c-3.264,2.556-5.101,6.668-5.101,13.543c0,9.576,5.664,16.384,16.353,16.384
		c4.824,0,10.835-3.121,11.334-3.967l1.423-2.415l-0.919-0.705c-2.701,1.624-5.39,3.328-8.791,3.328
		c-8.706,0-12.81-5.664-12.81-13.963h10.328c4.258,0,8.572-0.286,12.819-0.991c0.146-0.998,0.146-1.99,0.146-2.981
		C263.772,56.67,258.035,51.699,250.32,51.699"/>
	<path class="yYdCdriBWUSVodNJl981kg-st1" d="M278.074,77.713c0,1.916,0.067,3.334,0.347,4.125c0.286,0.633,1.059,0.919,2.269,0.985l3.179,0.219v2.117
		c-2.477-0.067-5.306-0.207-8.77-0.207c-3.477,0-6.309,0.14-8.776,0.207v-2.117l3.179-0.219c1.201-0.067,1.98-0.353,2.269-0.985
		c0.28-0.791,0.356-2.209,0.356-4.125V61.761c0-2.269-0.146-3.827-0.505-4.393c-0.419-0.566-1.132-0.779-2.616-0.779h-2.629v-1.983
		c4.189-0.426,8.426-1.776,11.048-2.914l0.648,0.292v6.029h0.137l5.238-4.544c1.564-1.345,2.896-1.776,5.731-1.776
		c8.293,0,11.687,4.611,11.687,12.338v13.683c0,1.916,0.067,3.334,0.353,4.125c0.286,0.633,1.065,0.919,2.269,0.985l2.902,0.219
		v2.117c-1.77-0.067-3.833-0.207-5.81-0.207c-1.978,0-4.034,0.14-5.658,0.207V65.028c0-5.889-3.334-9.004-8.153-9.004
		c-4.314,0-8.697,3.76-8.697,6.662V77.713z"/>
	<g>
		<path class="yYdCdriBWUSVodNJl981kg-st1" d="M311.593,55.86c-0.742,2.16-1.953,4.514-2.89,6.26l-2.768,2.294l-0.803-0.469
			c0.937-2.555,1.411-4.107,1.947-6.741c0.542-2.348,0.748-4.91,0.81-6.394c1.015-0.274,1.618-0.602,2.561-1.016
			c0.937-0.402,1.539-0.87,2.427-1.411l0.669,0.541C313.011,51.68,312.335,53.706,311.593,55.86"/>
	</g>
	<path class="yYdCdriBWUSVodNJl981kg-st1" d="M318.228,74.815v2.908c0,4.399,5.025,6.029,9.138,6.029c4.46,0,8.275-2.61,8.275-6.449
		c0-2.269-1.199-4.119-3.389-4.679c-3.127-0.791-7.015-1.564-10.422-2.835c-3.389-1.278-6.011-3.407-6.011-7.733
		c0-7.66,6.656-10.361,13.306-10.361c3.34,0,6.382,0.785,9.138,1.776c-0.213,2.562-0.28,5.177-0.353,8.019h-1.978v-1.636
		c0-3.681-4.179-5.81-8.219-5.81c-6.017,0-6.935,3.334-6.935,5.743c0,3.048,2.33,4.685,7.714,5.603
		c8.426,1.418,12.393,3.547,12.393,9.071c0,7.806-7.787,11.918-15.648,11.918c-3.407,0-6.443-0.493-9.911-1.703
		c0.706-3.121,0.773-6.528,0.773-9.862H318.228z"/>
	<path class="yYdCdriBWUSVodNJl981kg-st1" d="M114.234,99.08c0,0,1.613-1.991,2.744-3.298c1.299-1.501,3.335-2.593,4.826-3.281
		c2.341-1.079,5.369-0.724,7.017-0.559c1.853,0.185,3.83,0.634,5.736,1.141c1.784,0.475,7.971,2.249,9.716,2.859
		c2.629,0.92,14.242,4.547,17.777,5.506c2.623,0.712,5.981,1.671,8.615,2.336c2.592,0.654,5.202,1.249,7.823,1.778
		c1.518,0.306,3.298,0.661,4.843,0.791c2.799,0.236,4.779,0.495,7.499,0.165c2.663-0.323,4.417-0.798,6.427-1.648
		c2.142-0.907,4.862-3.148,4.779-3.148c-0.083,0,5.191-7.911,5.262-7.988c0.098-0.108-1.673-1.017-1.673-1.017
		c-1.196,1.755-2.338,3.139-4.413,4.473c-1.382,0.888-2.427,1.353-4.697,2.143c-2.241,0.779-3.519,0.961-6.578,1.059
		c-3.217,0.104-6.428-0.23-9.572-0.888c-4.243-0.888-9.94-2.282-12.086-2.794c-2.284-0.545-9.663-2.699-12.227-3.46
		c-1.323-0.393-5.077-1.53-6.392-1.95c-1.803-0.576-3.455-1.011-5.261-1.574c-1.48-0.462-2.963-0.916-4.454-1.342
		c-1.053-0.301-2.116-0.571-3.185-0.815c-1.219-0.278-2.449-0.511-3.674-0.762c-0.172-0.035-0.345-0.068-0.517-0.102
		c-0.002-0.022-0.004-0.043-0.006-0.065c1.196-0.064,2.287-0.191,3.756-0.378c14.116-1.847,22.421-14.071,21.501-29.062
		c-0.857-14.357-12.278-23.386-29.167-22.459c-14.468,0.78-24.407,13.357-23.625,27.495c0.779,14.003,11.568,23.666,24.124,24.526
		l0.532,0.033c0,0.013-0.176,0.087-0.317,0.097c-1.361,0.1-3.812,0.337-5.719,1.07c-2.566,0.987-5.197,2.961-5.234,2.958
		c-0.037-0.002-5.803,6.955-5.803,6.955L114.234,99.08z M112.477,61.674c-0.706-10.376,3.263-23.02,16.247-23.947
		c14.336-1.067,21.144,9.102,21.781,19.472c0.852,13.138-3.548,24.507-15.183,26.501C121.63,85.975,113.326,74.038,112.477,61.674"
		/>
	<path class="yYdCdriBWUSVodNJl981kg-st1" d="M219.871,104.904c-3.18,0-5.125-1.776-5.125-5.26v-6.766h2.605v6.698c0,1.928,0.964,2.926,2.554,2.926
		s2.554-0.964,2.554-2.842v-6.783h2.605v6.681C225.064,103.145,223.051,104.904,219.871,104.904"/>
	<polygon class="yYdCdriBWUSVodNJl981kg-st1" points="238.054,104.717 232.32,97.191 232.32,104.717 229.749,104.717 229.749,92.877 232.151,92.877 
		237.699,100.167 237.699,92.877 240.27,92.877 240.27,104.717 	"/>
	<rect x="245.26" y="92.877" class="yYdCdriBWUSVodNJl981kg-st1" width="2.605" height="11.84"/>
	<polygon class="yYdCdriBWUSVodNJl981kg-st1" points="258.926,104.802 256.626,104.802 251.839,92.878 254.715,92.878 257.81,101.216 260.905,92.878 
		263.713,92.878 	"/>
	<polygon class="yYdCdriBWUSVodNJl981kg-st1" points="267.57,104.717 267.57,92.877 276.5,92.877 276.5,95.195 270.157,95.195 270.157,97.597 
		275.739,97.597 275.739,99.914 270.157,99.914 270.157,102.4 276.585,102.4 276.585,104.717 	"/>
	<path class="yYdCdriBWUSVodNJl981kg-st1" d="M288.12,104.717l-2.537-3.789h-2.047v3.789h-2.605v-11.84h5.412c2.791,0,4.466,1.472,4.466,3.907v0.034
		c0,1.911-1.032,3.112-2.537,3.67l2.892,4.229H288.12z M288.171,96.92c0-1.116-0.778-1.691-2.047-1.691h-2.588v3.4h2.638
		c1.269,0,1.996-0.677,1.996-1.675V96.92z"/>
	<path class="yYdCdriBWUSVodNJl981kg-st1" d="M299.402,104.887c-1.793,0-3.603-0.626-5.024-1.894l1.539-1.844c1.066,0.879,2.182,1.438,3.535,1.438
		c1.066,0,1.708-0.423,1.708-1.116v-0.034c0-0.66-0.406-0.998-2.385-1.505c-2.385-0.609-3.924-1.269-3.924-3.62v-0.034
		c0-2.148,1.725-3.569,4.144-3.569c1.725,0,3.197,0.541,4.398,1.505l-1.353,1.962c-1.049-0.727-2.08-1.167-3.078-1.167
		s-1.522,0.457-1.522,1.032v0.034c0,0.778,0.508,1.032,2.554,1.556c2.402,0.626,3.755,1.488,3.755,3.552v0.034
		C303.749,103.567,301.956,104.887,299.402,104.887"/>
	<rect x="308.164" y="92.877" class="yYdCdriBWUSVodNJl981kg-st1" width="2.605" height="11.84"/>
	<polygon class="yYdCdriBWUSVodNJl981kg-st1" points="321.12,95.279 321.12,104.717 318.515,104.717 318.515,95.279 314.913,95.279 314.913,92.878 
		324.723,92.878 324.723,95.279 	"/>
	<polygon class="yYdCdriBWUSVodNJl981kg-st1" points="334.685,99.998 334.685,104.718 332.081,104.718 332.081,100.049 327.531,92.878 330.575,92.878 
		333.4,97.63 336.275,92.878 339.235,92.878 	"/>
</g>
<g>
	<g>
		<path class="yYdCdriBWUSVodNJl981kg-st1" d="M62.518,109.296c-0.257,0-0.515-0.038-0.764-0.114l-0.231-0.07c-0.39-0.118-9.708-3.026-18.114-12.238
			c-7.852-8.608-11.354-17.98-11.354-30.387V34.675c0-1.448,1.173-2.621,2.621-2.621h55.682c1.448,0,2.621,1.173,2.621,2.621v31.812
			c0,12.409-3.5,21.781-11.349,30.387c-8.409,9.213-17.726,12.12-18.118,12.239l-0.229,0.07
			C63.033,109.258,62.775,109.296,62.518,109.296z"/>
	</g>
	<g>
		<g>
			<g>
				<path d="M62.516,106.676l-0.231-0.07c-0.364-0.111-9.016-2.812-16.942-11.498c-7.378-8.089-10.669-16.916-10.669-28.62V34.675
					h55.682v31.812c0,11.707-3.289,20.534-10.665,28.62c-7.928,8.686-16.579,11.387-16.944,11.498L62.516,106.676z M62.285,105.085
					L62.285,105.085L62.285,105.085z"/>
			</g>
			<path class="yYdCdriBWUSVodNJl981kg-st2" d="M62.516,105.934c0,0-8.717-2.648-16.586-11.273c-7.869-8.627-10.461-17.556-10.461-28.084
				c0-15.038,0-10.607,0-31.107h54.092c0,20.5,0,16.069,0,31.107c0,10.528-2.588,19.457-10.457,28.084
				C71.231,103.286,62.516,105.934,62.516,105.934z"/>
		</g>
		<g>
			<path d="M44.124,44.137c0,9.048,0,9.05,0,23.957c0,6.701,2.172,13.06,5.939,17.901c7.108,9.139,12.452,10.226,12.452,10.226
				s5.343-1.087,12.451-10.226c3.766-4.841,5.939-11.2,5.939-17.901c0-14.907,0-14.909,0-23.957H44.124z"/>
		</g>
		<g>
			<polygon class="yYdCdriBWUSVodNJl981kg-st3" points="74.233,44.919 50.797,44.919 62.515,60.119 			"/>
			<path class="yYdCdriBWUSVodNJl981kg-st3" d="M44.907,50.586v17.507c0,4.118,0.837,8.128,2.412,11.736l10.067-13.058L44.907,50.586z"/>
			<path class="yYdCdriBWUSVodNJl981kg-st3" d="M51.968,87.105c5.501,6.526,9.692,8.05,10.547,8.306c0.847-0.253,5.04-1.775,10.545-8.306l-10.546-13.68
				L51.968,87.105z"/>
			<path class="yYdCdriBWUSVodNJl981kg-st3" d="M80.123,50.586L67.644,66.772L77.711,79.83c1.574-3.608,2.412-7.618,2.412-11.736V50.586z"/>
			<path class="yYdCdriBWUSVodNJl981kg-st4" d="M80.123,49.304v-4.385h-4.902L62.515,61.401L49.808,44.919h-4.902v4.385l13.467,17.467L47.685,80.637
				c0.827,1.74,1.829,3.378,2.996,4.877c0.261,0.336,0.52,0.659,0.776,0.973l11.059-14.344l11.059,14.344
				c0.256-0.314,0.514-0.637,0.776-0.973c1.167-1.5,2.169-3.138,2.996-4.878L66.656,66.772L80.123,49.304z"/>
		</g>
		<path d="M75.17,67.16c0.034-0.028,0.053-0.037,0.054-0.039c0.058,0.014,0.207,0.144,0.305,0.23
			c0.316,0.276,0.793,0.694,1.563,0.694c0.818,0,1.196-0.523,1.445-0.868c0.081-0.113,0.158-0.219,0.231-0.285
			c0.071-0.064,0.16-0.117,0.246-0.168c0.179-0.106,0.425-0.252,0.439-0.552c0.014-0.295-0.22-0.508-0.449-0.675
			c-0.111-0.083-0.314-0.3-0.436-0.43l-0.034-0.036c-0.404-0.429-0.915-0.675-1.405-0.675c-0.001,0-0.002,0-0.003,0
			c-0.369,0.001-0.705,0.143-0.947,0.403c-0.476,0.513-0.743,0.538-0.79,0.517c-0.019-0.009-0.036-0.052-0.035-0.094
			c0.032-0.065,0.155-0.213,0.247-0.324c0.397-0.478,0.997-1.201,0.755-2.119c-0.218-0.822-0.599-1.414-1.133-1.758
			c-0.087-0.056-0.137-0.13-0.194-0.216c-0.096-0.143-0.257-0.381-0.594-0.381c-0.335,0-0.495,0.239-0.591,0.381
			c-0.058,0.086-0.108,0.16-0.192,0.216c-0.537,0.346-0.919,0.937-1.136,1.758c-0.241,0.916,0.358,1.639,0.754,2.116
			c0.091,0.11,0.215,0.259,0.247,0.324c0.002,0.048-0.018,0.088-0.034,0.095c-0.046,0.022-0.313-0.003-0.791-0.517
			c-0.239-0.258-0.574-0.401-0.942-0.403c-0.002,0-0.004,0-0.006,0c-0.489,0-1,0.246-1.404,0.673l-0.071,0.076
			c-0.119,0.126-0.298,0.317-0.4,0.391c-0.23,0.169-0.464,0.381-0.45,0.676c0.015,0.299,0.26,0.445,0.439,0.551
			c0.086,0.051,0.175,0.104,0.245,0.167c0.072,0.065,0.148,0.171,0.229,0.283c0.25,0.347,0.629,0.871,1.447,0.871
			c0.772,0,1.25-0.418,1.566-0.695c0.099-0.087,0.25-0.218,0.292-0.23c0,0,0.02,0.006,0.06,0.04c0.018,0.015,0.011,0.013,0.024,0.02
			c0.027,0.028,0.092,0.128-0.009,0.363c-0.296,0.683-0.356,1.611-0.142,2.156c0.138,0.355,0.128,1.048,0.039,1.487
			c-0.016,0.077-0.033,0.154-0.05,0.231c-0.101,0.459-0.205,0.933-0.021,1.345c0.078,0.169,0.314,0.685,0.89,0.685h0.015
			c0.579,0,0.812-0.517,0.888-0.686c0.186-0.408,0.081-0.881-0.02-1.338c-0.018-0.079-0.035-0.158-0.05-0.235
			c-0.088-0.444-0.097-1.139,0.041-1.489c0.213-0.549,0.153-1.476-0.142-2.156c-0.102-0.236-0.039-0.336-0.012-0.365
			C75.161,67.172,75.153,67.175,75.17,67.16z"/>
		<path d="M58.713,53.836c0.026,0.151,0.138,0.273,0.286,0.311c0.192,0.049,0.379,0.07,0.547,0.076
			c0.051,0.123,0.163,0.212,0.296,0.233c0.267,0.043,1.097,0.165,2.056,0.197c-0.063,2.064-0.296,2.659-0.345,2.76
			c-0.134,0.135-0.11,0.311,0.009,0.465l0.66,0.855c0.073,0.095,0.186,0.15,0.306,0.15h0c0.12,0,0.233-0.056,0.306-0.151
			l0.658-0.853c0.12-0.155,0.142-0.334,0.005-0.469c-0.049-0.101-0.29-0.695-0.359-2.758c0.961-0.033,1.787-0.154,2.053-0.197
			c0.133-0.021,0.244-0.11,0.296-0.233c0.168-0.006,0.355-0.027,0.547-0.076c0.149-0.038,0.261-0.16,0.286-0.311
			c0.016-0.095-0.004-0.191-0.053-0.269c0.06-0.059,0.1-0.137,0.112-0.224c0.02-0.146-0.045-0.291-0.168-0.373
			c-0.412-0.276-0.813-0.762-1.086-1.136c0.058-0.011,0.116-0.024,0.171-0.04c0.133-0.037,0.237-0.143,0.271-0.276
			c0.034-0.134-0.006-0.276-0.105-0.373c-0.293-0.286-0.703-0.826-0.991-1.224c0.079-0.044,0.142-0.116,0.175-0.204
			c0.049-0.133,0.022-0.283-0.072-0.389c-0.108-0.123-0.311-0.428-0.493-0.711c0.066-0.046,0.117-0.112,0.145-0.191
			c0.05-0.144,0.01-0.304-0.101-0.409c-0.33-0.309-0.569-0.638-0.721-0.881c0.032-0.042,0.055-0.091,0.067-0.144
			c0.03-0.128-0.007-0.262-0.098-0.356c-0.187-0.194-0.354-0.42-0.523-0.71c-0.069-0.118-0.196-0.191-0.334-0.191
			s-0.264,0.073-0.334,0.191c-0.17,0.29-0.336,0.515-0.524,0.71c-0.091,0.094-0.128,0.229-0.098,0.356
			c0.012,0.053,0.036,0.102,0.067,0.144c-0.152,0.243-0.39,0.571-0.721,0.88c-0.111,0.104-0.151,0.264-0.101,0.409
			c0.027,0.079,0.079,0.145,0.144,0.191c-0.182,0.284-0.385,0.588-0.493,0.711c-0.094,0.107-0.121,0.256-0.072,0.389
			c0.033,0.088,0.096,0.16,0.175,0.204c-0.289,0.398-0.698,0.938-0.992,1.224c-0.099,0.097-0.139,0.239-0.105,0.373
			c0.034,0.134,0.138,0.239,0.271,0.276c0.055,0.015,0.113,0.028,0.171,0.04c-0.273,0.374-0.674,0.86-1.086,1.136
			c-0.123,0.082-0.188,0.227-0.168,0.373c0.012,0.086,0.052,0.165,0.112,0.224C58.717,53.645,58.697,53.74,58.713,53.836z"/>
		<path d="M70.451,86.779c-0.476-0.02-1.062-0.122-1.147-0.49c-0.007-0.03-0.01-0.061-0.01-0.09c0-0.183,0.126-0.411,0.338-0.609
			c0.086-0.081,0.131-0.197,0.12-0.315c-0.01-0.118-0.074-0.225-0.173-0.29c-0.499-0.327-1.087-0.935-1.703-1.756
			c-0.092-0.123-0.247-0.179-0.398-0.145c-0.149,0.035-0.264,0.155-0.292,0.306c-0.126,0.678-0.517,1.916-1.726,2.587
			c-0.116,0.065-0.191,0.185-0.198,0.318c-0.007,0.133,0.055,0.26,0.164,0.337c0.359,0.252,0.468,0.526,0.502,0.671
			c0.017,0.071,0.026,0.143,0.026,0.221c0,0.309-0.144,0.614-0.406,0.858c-0.238,0.223-0.553,0.357-0.888,0.377
			c-0.105,0.006-0.203,0.055-0.271,0.136c-0.068,0.08-0.101,0.185-0.09,0.29c0.006,0.059,0.009,0.12,0.009,0.179
			c0,0.737-0.496,1.33-0.906,1.692l-0.006,0.005c-0.001,0-0.058,0.022-0.118-0.018c-0.129-0.088-0.161-0.174-0.161-0.441
			l-0.001-0.453c-0.001-0.142-0.001-0.28-0.001-0.409l0.003-4.958c0.507-0.061,0.966-0.242,1.322-0.525
			c0.52-0.414,0.795-1.014,0.795-1.736c0-0.925-0.544-1.584-1.272-1.949c0.004-0.01,0.01-0.019,0.013-0.03l0.85-2.666
			c0.057-0.178-0.022-0.371-0.187-0.459c-0.611-0.325-1.344-0.497-2.12-0.497c-0.776,0-1.509,0.172-2.12,0.497
			c-0.165,0.088-0.243,0.281-0.187,0.459l0.85,2.666c0.003,0.01,0.009,0.02,0.013,0.03c-0.729,0.366-1.272,1.025-1.272,1.949
			c0,0.722,0.275,1.322,0.795,1.736c0.355,0.283,0.814,0.464,1.321,0.525l0.003,5.089c0,0.089,0,0.185-0.001,0.291l-0.001,0.442
			c0,0.262-0.033,0.352-0.16,0.439c-0.06,0.04-0.116,0.02-0.116,0.02h0l-0.005-0.002c-0.417-0.368-0.912-0.961-0.912-1.696
			c0-0.052,0.003-0.109,0.011-0.18c0.011-0.105-0.022-0.209-0.09-0.29c-0.068-0.08-0.166-0.129-0.271-0.136
			c-0.335-0.02-0.651-0.155-0.889-0.377c-0.261-0.245-0.405-0.55-0.405-0.858c0-0.078,0.008-0.15,0.026-0.224
			c0.033-0.141,0.142-0.416,0.501-0.667c0.109-0.077,0.171-0.204,0.164-0.337c-0.007-0.133-0.082-0.253-0.198-0.318
			c-1.208-0.671-1.6-1.909-1.726-2.587c-0.028-0.151-0.143-0.271-0.292-0.306c-0.15-0.035-0.305,0.022-0.397,0.145
			c-0.616,0.822-1.205,1.429-1.703,1.756c-0.099,0.065-0.163,0.172-0.173,0.29c-0.01,0.118,0.034,0.234,0.12,0.315
			c0.211,0.198,0.338,0.426,0.338,0.609c0,0.03-0.003,0.057-0.01,0.087c-0.086,0.371-0.67,0.473-1.146,0.494
			c-0.147,0.006-0.278,0.096-0.337,0.23c-0.059,0.135-0.037,0.292,0.058,0.405c0.49,0.584,0.872,1.283,0.998,1.825
			c0.048,0.207,0.255,0.337,0.462,0.29c0.496-0.112,1.074-0.015,1.509,0.254c0.442,0.273,0.705,0.677,0.783,1.201
			c0.017,0.112,0.081,0.211,0.177,0.271c0.096,0.06,0.213,0.075,0.321,0.041c0.732-0.229,1.506,0.109,1.901,0.331
			c0.741,0.419,1.356,1.548,1.462,2.685c0.014,0.147,0.11,0.274,0.249,0.326l0.217,0.082c0.044,0.016,0.09,0.025,0.136,0.025
			c0.049,0,0.097-0.009,0.143-0.027l0.221-0.088c0.131-0.052,0.223-0.171,0.241-0.311c0.152-1.206,0.785-2.346,1.538-2.772
			c0.565-0.318,1.233-0.405,1.833-0.241c0.107,0.03,0.222,0.011,0.314-0.05c0.093-0.061,0.155-0.159,0.171-0.268
			c0.076-0.525,0.339-0.93,0.782-1.204c0.436-0.269,1.015-0.366,1.511-0.254c0.208,0.047,0.414-0.083,0.462-0.29
			c0.125-0.541,0.508-1.241,0.998-1.825c0.095-0.113,0.117-0.27,0.058-0.405C70.729,86.875,70.598,86.786,70.451,86.779z"/>
		<path d="M66.042,63.82l-0.666-0.388c-0.063-0.037-0.134-0.056-0.21-0.052l-0.151,0.006c-0.227-0.002-0.645-0.052-0.797-0.13
			c-0.324-0.164-0.639-0.248-0.937-0.252c-0.316-0.001-0.57,0.071-0.759,0.157c-0.183-0.083-0.429-0.154-0.737-0.156
			c-0.013,0-0.025,0-0.03,0c-0.007,0-0.027,0-0.034,0c-0.016,0.001-0.032,0.002-0.047,0.004c-0.272,0.018-0.557,0.1-0.848,0.247
			c-0.153,0.077-0.579,0.129-0.8,0.13l-0.155-0.006c-0.074-0.003-0.147,0.015-0.21,0.052l-0.666,0.388
			c-0.119,0.069-0.192,0.197-0.192,0.334v6.091c0,0.116,0.052,0.226,0.142,0.299c0.09,0.073,0.208,0.103,0.321,0.08l3.254-0.655
			l3.254,0.655c0.025,0.005,0.051,0.008,0.076,0.008c0.089,0,0.175-0.03,0.245-0.087c0.09-0.073,0.142-0.183,0.142-0.299v-6.091
			C66.234,64.016,66.161,63.889,66.042,63.82z"/>
		<path d="M54.137,67.801c-0.076-0.08-0.185-0.124-0.291-0.121c-0.068,0.002-1.677,0.053-2.53,0.728v0
			c-0.499,0.394-0.753,0.916-0.883,1.358c-0.001,0.004-0.003,0.008-0.005,0.013c-0.026,0.098-0.086,0.152-0.251,0.258
			c-0.019-0.086-0.027-0.183-0.03-0.306c-0.007-0.277,0.03-0.475,0.151-0.816c0.043-0.12,0.023-0.254-0.052-0.357
			c-0.121-0.166-0.153-0.307-0.159-0.395c-0.005-0.071,0.035-0.18,0.095-0.322c0.043-0.101,0.041-0.214-0.005-0.313
			c-0.067-0.145-0.082-0.303-0.082-0.423c0.252-0.063,0.467-0.163,0.634-0.301c0.087,0.101,0.194,0.19,0.318,0.256
			c0.119,0.064,0.242,0.095,0.358,0.095c0.123,0,0.24-0.036,0.338-0.107c0.19-0.138,0.274-0.385,0.226-0.657
			c-0.025-0.14-0.077-0.27-0.146-0.383c0.329-0.208,0.595-0.593,0.766-1.121c0.17-0.523,0.182-0.988,0.041-1.347
			c0.121-0.051,0.238-0.126,0.339-0.223c0.2-0.193,0.275-0.441,0.203-0.665c-0.073-0.223-0.28-0.38-0.556-0.419
			c-0.139-0.019-0.276-0.009-0.405,0.021c-0.096-0.377-0.379-0.75-0.828-1.076c-0.448-0.326-0.889-0.48-1.276-0.455
			c-0.011-0.13-0.045-0.263-0.105-0.388c-0.121-0.25-0.334-0.4-0.569-0.401c0,0-0.001,0-0.001,0c-0.235,0-0.448,0.149-0.57,0.4
			c-0.061,0.125-0.094,0.257-0.105,0.388c-0.387-0.023-0.827,0.132-1.275,0.457c-0.449,0.326-0.732,0.699-0.828,1.075
			c-0.129-0.031-0.268-0.04-0.408-0.021c-0.275,0.039-0.482,0.195-0.555,0.419s0.003,0.472,0.204,0.666
			c0.101,0.097,0.218,0.172,0.34,0.223c-0.14,0.36-0.128,0.825,0.042,1.348c0.171,0.526,0.436,0.909,0.763,1.116
			c-0.07,0.114-0.123,0.245-0.149,0.385c-0.048,0.273,0.037,0.519,0.226,0.657c0.098,0.071,0.215,0.107,0.339,0.107
			c0.116,0,0.239-0.032,0.359-0.095c0.125-0.067,0.231-0.157,0.318-0.258c0.229,0.188,0.546,0.309,0.929,0.356
			c0.011,0.191,0.007,0.463-0.11,0.685c-0.055,0.104-0.06,0.228-0.012,0.336c0.061,0.139,0.101,0.259,0.097,0.391
			c-0.006,0.164-0.015,0.192-0.125,0.371c-0.07,0.114-0.076,0.257-0.016,0.376c0.139,0.275,0.194,0.533,0.2,0.682
			c0.002,0.047,0.002,0.093,0.002,0.137c-0.173-0.166-0.333-0.335-0.384-0.457c0,0,0-0.001-0.001-0.001
			c-0.157-0.434-0.404-0.91-0.795-1.27h0c-0.946-0.87-1.995-0.841-2.04-0.841c-0.106,0.001-0.172,0.032-0.241,0.081
			c-0.08,0.057-0.115,0.149-0.128,0.254c-0.009,0.075-0.235,1.853,0.751,2.77c0.522,0.485,1.302,0.579,1.827,0.579
			c0.009,0,0.018,0,0.027,0c0.465,0.049,0.831,0.267,0.967,0.484c0.003,0.008,0.005,0.016,0.007,0.024
			c0.053,0.171,0.024,0.295-0.131,0.55c-0.092,0.151-0.069,0.346,0.055,0.472c0.251,0.255,0.394,0.627,0.611,1.189
			c0.071,0.184,0.149,0.386,0.24,0.608c0.052,0.128,0.169,0.218,0.306,0.237c0.018,0.002,0.035,0.003,0.052,0.003
			c0.118,0,0.232-0.055,0.305-0.15l0.357-0.46c0.088-0.113,0.106-0.266,0.047-0.396c-0.191-0.422-0.259-0.818-0.259-1.028
			c0-0.095,0.012-0.186,0.037-0.287c0.035-0.137-0.008-0.281-0.111-0.377c-0.21-0.196-0.302-0.346-0.346-0.563
			c-0.007-0.168,0.024-0.441,0.854-0.493c0.008-0.001,0.015-0.003,0.023-0.003c0.398-0.015,0.992-0.104,1.679-0.425
			c1.255-0.586,1.424-2.456,1.43-2.535C54.25,67.989,54.212,67.88,54.137,67.801z"/>
		<g>
			<path class="yYdCdriBWUSVodNJl981kg-st5" d="M51.092,63.307l-0.004-0.011c-0.066-0.193-0.216-0.524-0.487-0.571c-0.02-0.003-0.038-0.005-0.052-0.005
				l-0.283,0.008l-0.093-0.268c-0.008-0.024-0.015-0.047-0.024-0.064c-0.129-0.24-0.484-0.282-0.685-0.286l-0.022,0l-0.038,0
				c-0.203,0.002-0.562,0.043-0.69,0.286c-0.007,0.014-0.013,0.034-0.019,0.055l-0.087,0.267h-0.281
				c-0.03,0-0.051,0.002-0.063,0.005c-0.271,0.047-0.422,0.376-0.487,0.567l-0.001,0.002l-0.017,0.056
				c-0.043,0.137-0.064,0.263-0.064,0.375c0,0.158,0.042,0.282,0.125,0.368c0.004,0.004,0.017,0.017,0.048,0.04l0.222,0.164
				l-0.083,0.263c-0.008,0.027-0.013,0.048-0.015,0.059c-0.005,0.027-0.005,0.042-0.005,0.056c0,0.186,0.139,0.393,0.393,0.583
				l0.055,0.041c0.166,0.116,0.474,0.286,0.717,0.166c0.006-0.003,0.025-0.013,0.048-0.03l0.229-0.17l0.23,0.169
				c0.024,0.018,0.043,0.028,0.05,0.032c0.246,0.12,0.559-0.055,0.724-0.17l0.013-0.009l0.033-0.025
				c0.255-0.191,0.395-0.399,0.395-0.584c0-0.019-0.001-0.037-0.004-0.056c-0.002-0.011-0.006-0.029-0.013-0.05l-0.093-0.269
				l0.229-0.169c0.032-0.024,0.043-0.035,0.044-0.036c0.087-0.09,0.129-0.213,0.129-0.373c0-0.111-0.021-0.235-0.062-0.37
				L51.092,63.307z"/>
			<path class="yYdCdriBWUSVodNJl981kg-st6" d="M46.717,62.978c-0.05-0.104-0.081-0.216-0.093-0.333c-0.097-0.032-0.21-0.046-0.323-0.03
				c-0.266,0.038-0.331,0.235-0.137,0.423c0.082,0.078,0.181,0.134,0.278,0.165C46.521,63.112,46.612,63.035,46.717,62.978z"/>
			<path class="yYdCdriBWUSVodNJl981kg-st6" d="M47.618,66.18c-0.071,0-0.142-0.01-0.213-0.025c-0.062,0.083-0.111,0.188-0.132,0.302
				c-0.047,0.266,0.122,0.388,0.36,0.262c0.1-0.054,0.184-0.132,0.244-0.215c-0.061-0.105-0.104-0.216-0.125-0.334
				C47.707,66.176,47.663,66.18,47.618,66.18z"/>
			<path class="yYdCdriBWUSVodNJl981kg-st6" d="M51.109,66.173c-0.021,0.117-0.064,0.228-0.125,0.333c0.06,0.083,0.143,0.16,0.243,0.213
				c0.238,0.127,0.407,0.005,0.359-0.261c-0.02-0.113-0.068-0.217-0.129-0.3c-0.071,0.015-0.143,0.025-0.214,0.025
				C51.199,66.183,51.154,66.179,51.109,66.173z"/>
			<path class="yYdCdriBWUSVodNJl981kg-st6" d="M52.423,63.203c0.097-0.031,0.196-0.086,0.277-0.164c0.194-0.187,0.128-0.385-0.137-0.423
				c-0.112-0.015-0.223-0.002-0.32,0.029c-0.012,0.118-0.043,0.231-0.093,0.337C52.253,63.038,52.343,63.114,52.423,63.203z"/>
			<path class="yYdCdriBWUSVodNJl981kg-st6" d="M49.725,60.814c0-0.101-0.023-0.21-0.071-0.311c-0.117-0.243-0.326-0.243-0.444,0
				c-0.048,0.1-0.07,0.208-0.071,0.307c0.111,0.048,0.211,0.113,0.298,0.195C49.52,60.926,49.617,60.862,49.725,60.814z"/>
		</g>
		<g>
			<path class="yYdCdriBWUSVodNJl981kg-st2" d="M47.412,63.165c0.161-0.471,0.439-0.763,0.788-0.823c0.036-0.006,0.079-0.01,0.128-0.01
				c0.014-0.043,0.029-0.084,0.045-0.116c0.165-0.312,0.528-0.486,1.027-0.492c-0.161-0.714-0.86-0.837-1.692-0.233
				C46.879,62.094,46.781,62.794,47.412,63.165z"/>
			<path class="yYdCdriBWUSVodNJl981kg-st2" d="M47.601,64.673c0-0.036,0.002-0.073,0.009-0.11c0.005-0.035,0.015-0.078,0.029-0.122
				c-0.038-0.028-0.07-0.055-0.096-0.082c-0.155-0.16-0.234-0.378-0.234-0.637c0-0.151,0.028-0.316,0.082-0.49
				c-0.729-0.068-1.062,0.559-0.745,1.536c0.317,0.975,0.954,1.284,1.503,0.797C47.792,65.298,47.601,64.986,47.601,64.673z"/>
			<path class="yYdCdriBWUSVodNJl981kg-st2" d="M50.493,62.217c0.016,0.031,0.031,0.073,0.047,0.117c0.048-0.001,0.092,0.004,0.128,0.01
				c0.347,0.06,0.626,0.354,0.787,0.827c0.629-0.374,0.531-1.078-0.3-1.681c-0.828-0.603-1.524-0.479-1.683,0.233
				C49.966,61.733,50.328,61.906,50.493,62.217z"/>
			<path class="yYdCdriBWUSVodNJl981kg-st2" d="M51.476,63.239c0.053,0.172,0.079,0.335,0.079,0.483c0,0.259-0.078,0.478-0.234,0.638
				c-0.025,0.027-0.058,0.054-0.097,0.083c0.015,0.044,0.025,0.087,0.03,0.122c0.005,0.037,0.008,0.073,0.008,0.11
				c0,0.313-0.193,0.626-0.55,0.894c0.55,0.487,1.191,0.177,1.508-0.802C52.537,63.792,52.204,63.169,51.476,63.239z"/>
			<path class="yYdCdriBWUSVodNJl981kg-st2" d="M49.539,65.811c-0.033-0.016-0.07-0.039-0.108-0.067c-0.038,0.028-0.076,0.051-0.108,0.067
				c-0.316,0.155-0.712,0.083-1.118-0.203c-0.293,0.673,0.2,1.186,1.229,1.186c1.027,0,1.517-0.511,1.222-1.183
				C50.25,65.894,49.855,65.966,49.539,65.811z"/>
		</g>
		<path class="yYdCdriBWUSVodNJl981kg-st2" d="M49.429,62.128c-0.677,0-0.959,0.378-0.641,0.842l-0.001,0.001c-0.346-0.447-0.793-0.293-1.003,0.352
			c-0.209,0.646,0.062,1.031,0.603,0.871l0.001,0.001c-0.532,0.19-0.525,0.663,0.025,1.062c0.548,0.398,0.997,0.259,1.013-0.303
			c0,0,0.001,0,0.002,0c0.018,0.564,0.468,0.702,1.019,0.303c0.548-0.398,0.554-0.869,0.024-1.059l0.001-0.001
			c0.541,0.158,0.812-0.229,0.603-0.875c-0.21-0.644-0.655-0.796-0.999-0.35l-0.001-0.001
			C50.393,62.505,50.108,62.128,49.429,62.128z M48.602,63.866c0-0.458,0.373-0.83,0.83-0.83c0.458,0,0.83,0.371,0.83,0.83
			c0,0.458-0.371,0.83-0.83,0.83C48.975,64.696,48.602,64.324,48.602,63.866z"/>
		<path class="yYdCdriBWUSVodNJl981kg-st7" d="M62.517,77.305c-0.71,0-1.389,0.16-1.938,0.452l0.85,2.666c0.658-0.248,1.519-0.248,2.177,0l0.85-2.666
			C63.906,77.465,63.226,77.305,62.517,77.305z"/>
		<path class="yYdCdriBWUSVodNJl981kg-st6" d="M74.429,73.06c-0.217,0-0.383-0.118-0.539-0.459c-0.156-0.349,0-0.852,0.098-1.338
			c0.098-0.485,0.116-1.258-0.058-1.704c-0.176-0.447-0.116-1.28,0.136-1.862c0.252-0.581-0.121-0.833-0.121-0.833
			c-0.644-0.542-0.911,0.794-2.167,0.794c-0.858,0-1.049-0.72-1.416-1.054c-0.369-0.334-0.894-0.336-0.266-0.797
			c0.152-0.112,0.376-0.359,0.523-0.512c0.588-0.623,1.368-0.727,1.789-0.274c1.035,1.113,1.551,0.544,1.49,0.091
			c-0.053-0.385-1.291-1.205-1.009-2.274c0.214-0.808,0.579-1.279,0.972-1.532c0.327-0.213,0.332-0.535,0.574-0.535
			c0.247,0,0.249,0.322,0.579,0.535c0.393,0.253,0.755,0.724,0.969,1.532c0.282,1.07-0.954,1.889-1.009,2.274
			c-0.06,0.453,0.458,1.022,1.491-0.091c0.423-0.453,1.203-0.349,1.79,0.274c0.144,0.154,0.37,0.4,0.521,0.512
			c0.63,0.461,0.106,0.463-0.264,0.797c-0.37,0.334-0.556,1.054-1.417,1.054c-1.254,0-1.52-1.337-2.17-0.794
			c0,0-0.368,0.252-0.116,0.833c0.252,0.582,0.31,1.415,0.136,1.862c-0.176,0.446-0.156,1.219-0.06,1.704
			c0.098,0.486,0.257,0.989,0.098,1.338c-0.154,0.341-0.322,0.459-0.536,0.459H74.429z"/>
		<g>
			<g>
				<path class="yYdCdriBWUSVodNJl981kg-st0" d="M62.74,63.531c0.278-0.175,0.724-0.222,1.303,0.07c0.257,0.13,0.792,0.171,0.983,0.171
					c0,0.73,0,4.346,0,5.317c-0.261-0.023-0.772-0.209-0.993-0.321c-0.556-0.281-0.983-0.249-1.293-0.092V63.531z"/>
				<path class="yYdCdriBWUSVodNJl981kg-st0" d="M60.016,63.772c0.191,0,0.725-0.042,0.982-0.171c0.58-0.292,1.026-0.245,1.303-0.07v5.146
					c-0.31-0.158-0.736-0.189-1.292,0.092c-0.222,0.112-0.734,0.298-0.993,0.321C60.016,68.119,60.016,64.502,60.016,63.772z"/>
				<polygon class="yYdCdriBWUSVodNJl981kg-st0" points="65.437,63.912 65.855,64.154 65.855,69.866 65.437,69.424 				"/>
				<polygon class="yYdCdriBWUSVodNJl981kg-st0" points="59.186,64.154 59.604,63.912 59.604,69.424 59.186,69.866 				"/>
			</g>
			<path class="yYdCdriBWUSVodNJl981kg-st0" d="M62.517,69.328v0.246l-3.075,0.619l0.672-0.716c0.243-0.015,0.672-0.181,0.876-0.284
				C61.493,68.939,62.234,68.815,62.517,69.328z"/>
			<path class="yYdCdriBWUSVodNJl981kg-st0" d="M62.517,69.328v0.246l3.075,0.619l-0.672-0.716c-0.243-0.015-0.672-0.181-0.876-0.284
				C63.54,68.939,62.8,68.815,62.517,69.328z"/>
		</g>
		<g>
			<path class="yYdCdriBWUSVodNJl981kg-st6" d="M62.731,84.416c1.09,0,2.116-0.603,2.116-1.897c0-1.282-1.251-1.897-2.33-1.898
				c-1.079,0-2.33,0.615-2.33,1.898c0,1.294,1.026,1.897,2.116,1.897c0,1.138,0,2.86,0,2.86l0.003,2.593c0,0.09,0,0.189-0.001,0.292
				l-0.001,0.441c0,0.294-0.035,0.558-0.33,0.759c-0.171,0.116-0.36,0.106-0.479,0.058l-0.062-0.025l-0.05-0.043
				c-0.476-0.42-1.045-1.114-1.045-1.988c0-0.073,0.005-0.146,0.013-0.219c-0.413-0.025-0.814-0.186-1.13-0.481
				c-0.341-0.32-0.527-0.727-0.527-1.14c0-0.106,0.011-0.209,0.037-0.312c0.054-0.231,0.218-0.589,0.656-0.896
				c-1.196-0.665-1.731-1.845-1.918-2.855c-0.47,0.627-1.133,1.41-1.8,1.848c0.271,0.254,0.459,0.574,0.459,0.891
				c0,0.058-0.006,0.116-0.02,0.173c-0.113,0.491-0.622,0.755-1.507,0.793c0.479,0.571,0.926,1.329,1.079,1.986
				c0.579-0.131,1.264-0.028,1.798,0.302c0.541,0.335,0.868,0.846,0.962,1.473c0.739-0.231,1.543-0.009,2.207,0.364
				c0.872,0.493,1.54,1.732,1.657,2.985l0.217,0.082l0.221-0.088c0.157-1.249,0.806-2.537,1.732-3.061
				c0.662-0.373,1.435-0.466,2.125-0.277c0.09-0.63,0.419-1.143,0.962-1.478c0.535-0.33,1.22-0.433,1.799-0.302
				c0.152-0.657,0.599-1.415,1.079-1.986c-0.885-0.038-1.395-0.302-1.508-0.793c-0.013-0.058-0.019-0.116-0.019-0.173
				c0-0.317,0.189-0.637,0.46-0.891c-0.667-0.438-1.331-1.221-1.8-1.848c-0.187,1.009-0.723,2.19-1.918,2.855
				c0.438,0.307,0.602,0.665,0.656,0.896c0.025,0.103,0.036,0.206,0.036,0.312c0,0.413-0.186,0.821-0.528,1.14
				c-0.315,0.295-0.718,0.456-1.129,0.481c0.007,0.073,0.011,0.146,0.011,0.219c0,0.874-0.568,1.567-1.043,1.988L63.6,91.394
				l-0.062,0.025c-0.12,0.048-0.308,0.058-0.479-0.058c-0.296-0.202-0.33-0.465-0.33-0.759l-0.001-0.451
				c-0.001-0.144-0.001-0.282-0.001-0.413l0.003-3.592c0,0,0-0.959,0-1.732L62.731,84.416z"/>
		</g>
		<g>
			<path class="yYdCdriBWUSVodNJl981kg-st8" d="M62.512,54.66c-0.052,0.001-0.104,0.001-0.155,0.001c-0.024,0-0.048,0-0.073-0.001
				c-0.078,2.546-0.416,2.981-0.416,2.981l0.66,0.855l0.658-0.853c0,0-0.348-0.436-0.434-2.983
				C62.672,54.661,62.592,54.661,62.512,54.66z"/>
		</g>
		<path class="yYdCdriBWUSVodNJl981kg-st6" d="M65.516,53.418c0,0,0.227-0.043,0.479-0.127c-0.815-0.546-1.552-1.776-1.552-1.776s0.443-0.008,0.749-0.093
			c-0.533-0.52-1.39-1.776-1.39-1.776s0.261-0.032,0.481-0.063c-0.245-0.28-0.841-1.258-0.841-1.258s0.155-0.003,0.418-0.025
			c-0.699-0.655-1.015-1.376-1.015-1.376s0.151,0.017,0.25-0.019c-0.25-0.259-0.434-0.536-0.579-0.783
			c-0.145,0.247-0.329,0.524-0.579,0.783c0.098,0.035,0.25,0.019,0.25,0.019s-0.316,0.722-1.015,1.376
			c0.263,0.023,0.418,0.025,0.418,0.025s-0.595,0.979-0.841,1.258c0.22,0.031,0.481,0.063,0.481,0.063s-0.857,1.257-1.39,1.776
			c0.306,0.085,0.749,0.093,0.749,0.093s-0.737,1.23-1.552,1.776c0.252,0.084,0.479,0.127,0.479,0.127s-0.152,0.175-0.423,0.354
			c0.557,0.141,1.062,0.014,1.062,0.014s-0.127,0.145-0.253,0.288c0.512,0.082,1.553,0.213,2.613,0.2
			c1.06,0.013,2.101-0.118,2.613-0.2c-0.126-0.143-0.253-0.288-0.253-0.288s0.506,0.127,1.062-0.014
			C65.668,53.593,65.516,53.418,65.516,53.418z"/>
		<g>
			<circle class="yYdCdriBWUSVodNJl981kg-st2" cx="49.432" cy="63.866" r="0.443"/>
		</g>
		<path class="yYdCdriBWUSVodNJl981kg-st6" d="M51.555,68.711c-0.422,0.334-0.639,0.781-0.752,1.163c0,0.001-0.002,0.002-0.002,0.003
			c-0.098,0.372-0.424,0.457-0.774,0.724c-0.217-0.293-0.258-0.526-0.266-0.861c-0.008-0.344,0.046-0.596,0.173-0.955
			c-0.19-0.26-0.225-0.487-0.233-0.598c-0.01-0.154,0.044-0.309,0.124-0.498c-0.085-0.183-0.111-0.37-0.116-0.521
			c-0.083,0.007-0.168,0.011-0.257,0.012c0.009,0.229-0.005,0.555-0.157,0.842c0.078,0.178,0.136,0.352,0.129,0.559
			c-0.008,0.244-0.045,0.337-0.182,0.56c0.15,0.297,0.232,0.612,0.241,0.842c0.008,0.21,0,0.686-0.135,0.915
			c-0.35-0.345-0.848-0.733-0.99-1.071c0-0.001-0.001-0.002-0.002-0.003c-0.139-0.39-0.357-0.818-0.699-1.133
			c-0.84-0.773-1.764-0.739-1.764-0.739s-0.22,1.645,0.631,2.436c0.447,0.416,1.157,0.482,1.617,0.475c0,0,0.001,0,0.001,0
			c0.565,0.056,1.098,0.338,1.3,0.721c0.006,0.02,0.011,0.038,0.018,0.059c0.107,0.345-0.008,0.597-0.17,0.865
			c0.401,0.408,0.548,0.981,0.933,1.921l0.357-0.46c-0.193-0.426-0.293-0.881-0.293-1.188c0-0.142,0.02-0.267,0.049-0.382
			c-0.27-0.252-0.408-0.476-0.467-0.795c-0.047-0.826,0.838-0.906,1.215-0.929c0.004,0,0.006-0.002,0.01-0.002
			c0.353-0.011,0.904-0.087,1.553-0.39c1.066-0.498,1.209-2.217,1.209-2.217S52.317,68.109,51.555,68.711z"/>
		
			<use xlink:href="#Crown"  width="7.281" height="5.335" x="-3.641" y="-2.668" transform="matrix(1 0 0 -1 39.7967 39.7247)" style="overflow:visible;"/>
		
			<use xlink:href="#Crown"  width="7.281" height="5.335" x="-3.641" y="-2.668" transform="matrix(1 0 0 -1 62.5147 39.7247)" style="overflow:visible;"/>
		
			<use xlink:href="#Crown"  width="7.281" height="5.335" x="-3.641" y="-2.668" transform="matrix(1 0 0 -1 85.2327 39.7247)" style="overflow:visible;"/>
		
			<use xlink:href="#Crown"  width="7.281" height="5.335" x="-3.641" y="-2.668" transform="matrix(1 0 0 -1 85.2327 64.4194)" style="overflow:visible;"/>
		
			<use xlink:href="#Crown"  width="7.281" height="5.335" x="-3.641" y="-2.668" transform="matrix(1 0 0 -1 80.0985 86.8381)" style="overflow:visible;"/>
		
			<use xlink:href="#Crown"  width="7.281" height="5.335" x="-3.641" y="-2.668" transform="matrix(1 0 0 -1 62.5147 100.1049)" style="overflow:visible;"/>
		
			<use xlink:href="#Crown"  width="7.281" height="5.335" x="-3.641" y="-2.668" transform="matrix(1 0 0 -1 44.9309 86.8381)" style="overflow:visible;"/>
		
			<use xlink:href="#Crown"  width="7.281" height="5.335" x="-3.641" y="-2.668" transform="matrix(1 0 0 -1 39.7967 64.4194)" style="overflow:visible;"/>
	</g>
</g>
</svg>
